<svg width="35" height="32" viewBox="0 0 35 32">
<title>garfo e faca</title>
<path d="M25.724 3.253c-4.569 3.591-4.693 3.751-4.924 6.204-0.178 1.796-0.338 2.453-0.764 3.271-0.622 1.12-0.516 1.138-2.382-0.64-6.418-6.151-13.351-10.471-16.782-10.489-1.209 0-0.96 0.356 2.88 4.196 2.062 2.044 5.422 5.458 7.484 7.591l3.751 3.876-6.062 6.080c-5.956 5.973-6.080 6.098-6.080 6.809 0 0.391 0.124 0.871 0.267 1.067 0.356 0.516 1.227 0.853 1.813 0.693 0.338-0.071 2.542-2.151 6.542-6.151l6.044-6.027 5.778 5.778c4.018 4.036 5.938 5.831 6.311 5.92 1.244 0.338 2.222-0.409 2.222-1.707v-0.8l-4.391-4.427c-2.436-2.436-4.693-4.569-5.031-4.729-1.013-0.48-2.276-1.849-2.418-2.631-0.124-0.64-0.089-0.711 0.658-1.369 1.156-1.049 2.436-1.564 4.462-1.831 1.244-0.16 1.973-0.356 2.489-0.658s1.689-1.636 3.893-4.409c3.129-3.947 3.147-3.982 2.809-4.338-0.338-0.338-0.338-0.338-1.067 0.356-0.391 0.391-2.098 2.169-3.769 3.964l-3.040 3.236-0.444-0.444-0.462-0.444 3.876-3.876c3.68-3.68 3.84-3.876 3.556-4.178-0.302-0.284-0.498-0.124-4.178 3.556l-3.876 3.876-0.391-0.409-0.409-0.391 7.751-7.751-0.373-0.338c-0.373-0.338-0.391-0.32-4.231 3.52l-3.876 3.876-0.409-0.427-0.391-0.444 3.911-3.68c2.169-2.027 3.929-3.751 3.929-3.804 0-0.196-0.409-0.551-0.604-0.551-0.107 0.018-1.938 1.387-4.071 3.076z"></path>
</svg>
