<svg width="110" height="32" viewBox="0 0 110 32">
<title>logo</title>
<path fill="#f6af24" d="M28.724 12.372l-0.572-0.025q-1.475 0-2.911 0.369-1.424 0.369-2.466 0.953-1.042 0.572-1.691 1.309-0.636 0.725-0.636 1.424 0 1.551 2.034 2.453 0 0.534-0.127 1.258-0.127 0.712-0.242 0.864-2.021-0.826-3.025-2.008-0.991-1.182-0.991-2.491 0-2.377 2.58-4.119 2.58-1.754 6.953-2.123 2.008-0.14 3.991-0.14t3.14 0.013 1.716 0.013l-1.792 2.682q-1.195 0-2.72-0.165-1.525-0.178-2.097-0.216-0.267 1.398-0.699 3.826t-0.547 3.038q1.080-0.127 2.212-0.127 1.144 0 2.631 0.076 0.47 0 0.47 0.445t-0.407 0.953q-0.394 0.508-0.877 0.508-2.987 0-4.424 0.127-0.928 4.5-2.085 6.699-1.004 1.907-2.25 2.746-1.449 0.966-3.394 0.966-2.377 0-3.216-1.932-0.216-0.496-0.216-0.979 0-1.983 2.708-1.983-0.14 0.763-0.14 1.691 0 0.915 0.305 1.411t1.017 0.521 1.322-0.686 1.144-2.047q0.902-2.263 1.792-5.911l-1.093 0.318q-0.064 0-0.229 0.013-0.165 0-0.343-0.14-0.165-0.14-0.165-0.458t0.114-0.559q0.165-0.331 0.674-0.547 0.508-0.229 1.475-0.534 0.191-0.788 0.331-1.436 0.153-0.661 0.267-1.157t0.191-0.788 0.165-0.686q0.102-0.394 0.178-0.636 0.076-0.254 0.165-0.521 0.178-0.521 0.318-0.763 0.674-1.004 1.462-1.5z"></path>
<path fill="#1a1a1a" d="M35.893 29.762q-1.525 0-1.881-2.148-0.076-0.521-0.076-1.080 0-1.386 0.686-2.797t1.805-2.517q1.131-1.106 2.695-1.805 1.576-0.699 3.216-0.699 0.801 0 2.136 0.419-0.013 0.089-0.254 1.169-0.242 1.068-0.483 2.186-0.661 3.063-0.661 3.801t0.381 0.737q0.839 0 3.89-3.229v1.424q-1.932 1.996-3.686 3.267-1.741 1.271-2.326 1.271-0.966 0-0.966-1.665 0-0.547 0.102-1.233-0.915 1.195-2.136 2.047-1.208 0.852-2.441 0.852zM36.643 25.821q0 1.907 1.246 1.907 0.534 0 1.309-0.559 0.788-0.559 1.424-1.233l1.462-6.254q-1.373 0-2.657 0.979t-2.034 2.402-0.75 2.758z"></path>
<path fill="#1a1a1a" d="M50.105 29.304q-0.432 0.178-0.953 0.318-0.508 0.14-1.030 0.14-0.508 0-1.080-0.102-0.559-0.102-1.106-0.331-1.246-0.508-1.246-1.754 0-0.496 0.369-1.131t0.801-1.119q0.445-0.483 1.042-1.106t0.814-0.89q-0.343-0.852-0.343-1.856 0-1.487 0.915-2.453 0.915-0.979 2.733-0.979 0.801 0 0.801 0.445 0 0.788-0.686 1.233-0.674 0.432-1.449 0.432 0.432 1.309 1.462 2.352 0.381 0.407 0.737 0.775 0.826 0.839 0.826 1.449 0 0.941-0.89 2.161l3.775-3.089v1.398q-0.153 0.127-0.763 0.661-0.597 0.534-0.877 0.775-0.267 0.229-0.89 0.725-0.61 0.496-0.992 0.763-0.369 0.254-0.953 0.623t-1.017 0.559zM48.261 24.321q-0.102 0.114-0.775 0.725-1.5 1.335-1.5 2.059 0 0.712 0.737 1.208 0.737 0.483 1.589 0.483t1.373-0.28q0.521-0.292 0.521-0.737t-0.114-0.801-0.369-0.737q-0.242-0.394-0.432-0.636-0.178-0.254-0.547-0.686-0.369-0.445-0.483-0.597z"></path>
<path fill="#1a1a1a" d="M55.965 20.050q-0.178 0-0.305 0-0.114 0-0.229 0-0.114-0.013-0.178-0.025t-0.153-0.038q-0.076-0.025-0.127-0.064t-0.102-0.089q-0.089-0.102-0.089-0.267 0-0.178 0.013-0.229 0.051-0.127 0.458-0.178l1.068-0.102q0.597-1.983 0.839-2.517 0.242-0.547 0.458-0.979 0.229-0.432 0.432-0.674 0.216-0.242 0.496-0.521t0.585-0.419q0.725-0.331 1.487-0.331l0.051 0.051q0 0.051-0.331 0.992-1.093 3.127-1.462 4.398l3.877-0.178-0.28 0.458q-0.318 0.585-3.801 0.585-0.013 0-0.394 1.411-1.144 4.207-1.144 5.097 0 0.902 0.203 1.042 0.203 0.127 0.419 0.127 0.686 0 4.843-3.941v1.436q-0.432 0.394-1.195 1.106t-1.208 1.119q-0.432 0.394-1.093 0.928-0.648 0.534-1.106 0.814-1.169 0.699-2.059 0.699-1.513 0-1.513-2.11 0-1.157 0.356-2.72 0.369-1.576 0.623-2.568 0.254-1.004 0.559-2.313z"></path>
<path fill="#f6af24" d="M73.9 29.787q-0.75 0-0.75-1.119 0-1.487 0.877-3.432 0.89-1.958 0.89-3.241 0-0.343-0.242-0.636t-0.737-0.292q-0.483 0-1.157 0.712t-1.208 1.703q-0.534 0.979-1.055 2.224-0.801 1.97-1.284 3.686h-2.441q0-1.665 1.042-5.059 0.623-2.021 0.623-2.466 0-0.458-0.178-0.648-0.178-0.203-0.356-0.203t-0.331 0.051q-0.826 0.381-1.64 1.5-0.801 1.106-1.386 2.479-1.093 2.542-1.551 4.347h-2.428q0.102-1.64 0.877-5.123 0.788-3.496 1.424-4.513 0.229-0.407 0.763-0.508 0.547-0.114 1.856-0.114-0.178 0.89-0.737 2.58-0.547 1.691-0.661 2.085 2.885-5.059 5.758-5.059 0.496 0 0.737 0.559 0.242 0.547 0.242 1.424 0 0.864-0.674 3.076 0.903-1.767 2.428-3.343 0.763-0.775 1.653-1.258t1.703-0.483q1.424 0 1.424 1.958 0 1.805-0.992 4.729-0.28 0.814-0.28 1.080 0 0.254 0.114 0.254 0.127 0 0.267-0.064 0.14-0.076 0.331-0.229 0.203-0.165 0.394-0.331 0.191-0.178 0.496-0.47 0.305-0.305 0.547-0.534 0.242-0.242 0.636-0.636l0.674-0.674v1.424q-1.589 1.64-3.318 3.102t-2.352 1.462z"></path>
<path fill="#1a1a1a" d="M81.896 22.211q0.966 1.246 2.136 1.246 0.737 0 1.271-0.725 0.547-0.725 0.547-1.525t-0.305-1.068q-0.292-0.28-0.864-0.28-0.559 0-1.055 0.254-0.483 0.254-0.826 0.636-0.661 0.75-0.903 1.462zM88.874 23.825v1.398q-2.021 2.224-3.61 3.381t-3.025 1.157q-2.873 0-3.585-1.869-0.267-0.737-0.267-1.78 0-1.856 0.775-3.534 0.775-1.691 2.225-2.771 1.462-1.093 3.241-1.093 3 0 3 2.237 0 1.449-1.169 2.53-1.169 1.068-2.631 1.068-0.585 0-1.22-0.343t-1.080-1.030q-0.547 1.144-0.547 2.237 0 2.936 2.136 2.936 0.559 0 1.373-0.534 0.826-0.534 1.449-1.119 0.636-0.597 1.602-1.564 0.966-0.979 1.335-1.309z"></path>
<path fill="#1a1a1a" d="M89.141 29.762q-1.525 0-1.881-2.148-0.076-0.521-0.076-1.080 0-1.386 0.686-2.797t1.805-2.517q1.131-1.106 2.695-1.805 1.576-0.699 3.216-0.699 0.801 0 2.136 0.419-0.013 0.089-0.254 1.169-0.242 1.068-0.483 2.186-0.661 3.063-0.661 3.801t0.381 0.737q0.839 0 3.89-3.229v1.424q-1.932 1.996-3.686 3.267-1.741 1.271-2.326 1.271-0.966 0-0.966-1.665 0-0.547 0.102-1.233-0.915 1.195-2.136 2.047-1.208 0.852-2.441 0.852zM89.891 25.821q0 1.907 1.246 1.907 0.534 0 1.309-0.559 0.788-0.559 1.424-1.233l1.462-6.254q-1.373 0-2.657 0.979t-2.034 2.402-0.75 2.758z"></path>
<path fill="#1a1a1a" d="M107.649 11.381q-0.89 0-1.741 2.479-0.839 2.479-1.932 7.678 0.953-0.979 1.792-2.352 0.839-1.386 1.347-2.682 1.080-2.733 1.080-3.928t-0.547-1.195zM101.319 29.762q-0.445 0-0.61-0.229t-0.254-0.381q-0.089-0.165-0.14-0.432t-0.089-0.458q-0.025-0.191-0.038-0.508-0.013-0.331-0.013-0.496v-0.496q0-2.453 0.674-5.428 0.686-2.974 1.741-5.491 1.068-2.517 2.491-4.22t2.771-1.703q0.826 0 1.297 0.572 0.483 0.559 0.483 1.678 0 1.106-0.343 2.491-0.331 1.373-0.864 2.53-0.534 1.144-1.182 2.237-0.648 1.080-1.297 1.907-1.322 1.678-2.059 2.364l-0.331 0.331q-0.75 1.983-0.75 2.936 0 0.941 0.445 0.941 0.318 0 1.741-1.398t2.606-2.708v1.424q-2.186 2.352-3.623 3.407-1.424 1.042-2.657 1.131z"></path>
<path fill="#1a1a1a" d="M13.898 0.225c-1.163 0.284-2.278 0.722-3.694 1.45-0.277 0.144-0.589 0.295-0.692 0.337-0.642 0.262-1.422 0.425-2.939 0.619-1.848 0.237-2.721 0.402-3.493 0.659-1.515 0.503-2.24 1.273-2.352 2.498-0.035 0.373-0.018 0.687 0.082 1.489 0.126 1.014 0.116 1.1-0.332 2.767-0.356 1.329-0.462 1.887-0.478 2.53-0.007 0.224 0.081 0.793 0.155 1.010 0.199 0.593 0.523 1.070 1.056 1.568 0.203 0.187 0.825 0.638 1.127 0.814 0.298 0.175 0.707 0.393 0.936 0.5 0.488 0.225 1.060 0.353 1.612 0.36 0.492 0.006 1.106-0.112 1.548-0.296 0.067-0.029 0.124-0.052 0.126-0.053s-0.066-0.096-0.149-0.213c-0.356-0.504-0.559-1.066-0.686-1.898-0.065-0.417-0.090-0.743-0.096-1.184-0.005-0.351 0.037-1.195 0.045-0.925 0.005 0.173 0.135 1.056 0.186 1.256 0.247 0.995 0.748 1.872 1.42 2.48 0.142 0.128 0.386 0.314 0.382 0.29-0.001-0.006-0.035-0.084-0.074-0.17-0.413-0.885-0.653-1.652-0.747-2.389-0.085-0.655-0.052-1.145 0.115-1.681 0.121-0.394 0.257-0.655 0.53-1.017 0.248-0.329 0.511-0.579 0.9-0.859 0.997-0.717 2.356-1.228 4.702-1.77 0.303-0.070 0.666-0.159 0.806-0.199 1.155-0.326 2.092-0.843 2.758-1.525 0.236-0.24 0.477-0.572 0.569-0.779 0.018-0.041 0-0.031-0.177 0.097-0.663 0.481-1.65 0.929-2.778 1.257-0.404 0.117-0.703 0.19-1.427 0.345-3.274 0.704-4.8 1.177-6.004 1.86-0.277 0.155-1.148 0.694-1.303 0.804-0.824 0.586-1.206 1.449-1.164 2.618 0.011 0.284 0.117 0.916 0.21 1.249 0.145 0.52 0.373 1.106 0.611 1.577 0.066 0.129 0.12 0.241 0.121 0.248s-0.038 0.019-0.087 0.027c-0.105 0.016-0.335-0.018-0.617-0.090-0.429-0.111-1.42-0.466-1.786-0.643-1.231-0.59-1.876-1.737-1.788-3.174 0.038-0.609 0.21-1.208 0.541-1.886 0.191-0.392 0.271-0.629 0.333-0.991 0.092-0.54 0.067-1.029-0.114-2.177-0.093-0.588-0.116-0.802-0.114-1.024 0.010-0.896 0.496-1.314 1.954-1.679 0.291-0.073 1.578-0.273 2.091-0.324 0.21-0.021 0.67-0.064 1.019-0.097 2.175-0.198 2.41-0.23 2.98-0.405 0.583-0.178 0.88-0.317 2.337-1.088 1.016-0.538 1.694-0.81 2.553-1.027 0.291-0.073 1.138-0.203 1.341-0.206 0.64-0.010 1.439 0.185 2.217 0.543 0.463 0.213 0.829 0.427 1.237 0.726 0.466 0.34 0.792 0.659 1.043 1.021 0.302 0.434 0.423 0.821 0.386 1.222-0.035 0.364-0.135 0.677-0.294 0.909-0.229 0.335-0.452 0.485-1.073 0.717-0.544 0.205-0.738 0.306-0.935 0.487-0.172 0.157-0.25 0.318-0.284 0.578-0.015 0.12-0.012 0.169 0.031 0.433 0.049 0.315 0.084 0.435 0.219 0.76 0.080 0.194 0.267 0.561 0.375 0.737 0.042 0.070 0.079 0.133 0.080 0.143 0.002 0.011-0.127 0.056-0.333 0.116-3.474 1.015-6.442 2.715-8.601 4.929-0.715 0.733-1.398 1.596-1.938 2.443-0.189 0.297-0.191 0.296 0.044 0.059 1.849-1.857 4.278-3.662 6.985-5.188 1.466-0.826 3.134-1.633 4.627-2.24 0.179-0.072 0.328-0.135 0.33-0.14 0.003-0.004-0.065-0.111-0.153-0.238-0.656-0.96-0.914-1.672-0.716-1.974 0.083-0.127 0.14-0.152 0.48-0.222 0.343-0.068 0.465-0.104 0.714-0.208 0.45-0.19 0.794-0.459 1.052-0.823 0.371-0.522 0.498-1.154 0.384-1.905-0.061-0.402-0.169-0.652-0.453-1.059-0.743-1.057-2.443-2.211-4.035-2.735-0.624-0.206-1.115-0.27-1.866-0.25-0.253 0.008-1.304 0.156-1.578 0.221z"></path>
<path fill="#1a1a1a" d="M27.195 7.872c-1.782 0.355-3.521 0.828-5.22 1.421-6.417 2.236-12.063 5.917-15.357 10.011-0.241 0.3-0.758 1.009-0.949 1.305-1.101 1.699-1.683 3.292-1.739 4.766-0.016 0.421-0.002 0.672 0.063 1.092 0.059 0.391 0.105 0.579 0.211 0.893 0.637 1.879 2.318 3.264 4.877 4.017 1.991 0.586 4.456 0.763 7.217 0.517 0.359-0.032 0.586-0.061 0.462-0.058-3.418 0.065-6.263-0.599-8.097-1.892-1.164-0.82-1.865-1.781-2.243-3.076-0.056-0.193-0.167-0.907-0.174-1.122-0.020-0.612 0.040-1.213 0.183-1.839 0.072-0.317 0.29-0.991 0.428-1.328 0.994-2.421 3.076-4.943 6.009-7.279 4.254-3.389 9.984-6.091 15.626-7.37 0.821-0.185 1.096-0.236 2.299-0.422 0.67-0.104 1.172-0.186 1.113-0.184-0.592 0.024-1.196 0.064-1.882 0.128-0.359 0.034-2.411 0.34-2.828 0.423z"></path>
</svg>
